<svg width="14" height="15" viewBox="0 0 14 15" fill="none" xmlns="http://www.w3.org/2000/svg">
              <path d="M13.8906 13.625L10.582 10.3164C10.5 10.2617 10.418 10.207 10.3359 10.207H9.98047C10.8281 9.22266 11.375 7.91016 11.375 6.48828C11.375 3.37109 8.80469 0.800781 5.6875 0.800781C2.54297 0.800781 0 3.37109 0 6.48828C0 9.63281 2.54297 12.1758 5.6875 12.1758C7.10938 12.1758 8.39453 11.6562 9.40625 10.8086V11.1641C9.40625 11.2461 9.43359 11.3281 9.48828 11.4102L12.7969 14.7188C12.9336 14.8555 13.1523 14.8555 13.2617 14.7188L13.8906 14.0898C14.0273 13.9805 14.0273 13.7617 13.8906 13.625ZM5.6875 10.8633C3.25391 10.8633 1.3125 8.92188 1.3125 6.48828C1.3125 4.08203 3.25391 2.11328 5.6875 2.11328C8.09375 2.11328 10.0625 4.08203 10.0625 6.48828C10.0625 8.92188 8.09375 10.8633 5.6875 10.8633Z" fill="#162A41"></path>
            </svg>